<mxfile host="Electron" agent="Mozilla/5.0 (Macintosh; Intel Mac OS X 10_15_7) AppleWebKit/537.36 (KHTML, like Gecko) draw.io/25.0.2 Chrome/128.0.6613.186 Electron/32.2.5 Safari/537.36" version="25.0.2">
  <diagram name="Страница — 1" id="NbpsFfCfzAH4oGt9KX6w">
    <mxGraphModel dx="3059" dy="1209" grid="1" gridSize="10" guides="1" tooltips="1" connect="1" arrows="1" fold="1" page="1" pageScale="1" pageWidth="827" pageHeight="1169" math="0" shadow="0">
      <root>
        <mxCell id="0" />
        <mxCell id="1" parent="0" />
        <mxCell id="Q71QBSqT3RxukdnOmlxo-1" value="Безопасность данных" style="rounded=1;whiteSpace=wrap;html=1;" vertex="1" parent="1">
          <mxGeometry x="270" y="40" width="120" height="60" as="geometry" />
        </mxCell>
        <mxCell id="Q71QBSqT3RxukdnOmlxo-2" value="Публичные данные" style="rounded=1;whiteSpace=wrap;html=1;" vertex="1" parent="1">
          <mxGeometry x="690" y="160" width="120" height="60" as="geometry" />
        </mxCell>
        <mxCell id="Q71QBSqT3RxukdnOmlxo-3" value="Внутренние данные" style="rounded=1;whiteSpace=wrap;html=1;" vertex="1" parent="1">
          <mxGeometry x="270" y="160" width="120" height="60" as="geometry" />
        </mxCell>
        <mxCell id="Q71QBSqT3RxukdnOmlxo-4" value="Конфиденциальные данные" style="rounded=1;whiteSpace=wrap;html=1;" vertex="1" parent="1">
          <mxGeometry x="-190" y="160" width="120" height="60" as="geometry" />
        </mxCell>
        <mxCell id="Q71QBSqT3RxukdnOmlxo-5" value="" style="endArrow=classic;html=1;rounded=0;exitX=0.5;exitY=1;exitDx=0;exitDy=0;entryX=0.5;entryY=0;entryDx=0;entryDy=0;" edge="1" parent="1" source="Q71QBSqT3RxukdnOmlxo-1" target="Q71QBSqT3RxukdnOmlxo-3">
          <mxGeometry width="50" height="50" relative="1" as="geometry">
            <mxPoint x="390" y="310" as="sourcePoint" />
            <mxPoint x="440" y="260" as="targetPoint" />
          </mxGeometry>
        </mxCell>
        <mxCell id="Q71QBSqT3RxukdnOmlxo-6" value="" style="endArrow=classic;html=1;rounded=0;exitX=0;exitY=0.5;exitDx=0;exitDy=0;entryX=0.5;entryY=0;entryDx=0;entryDy=0;" edge="1" parent="1" source="Q71QBSqT3RxukdnOmlxo-1" target="Q71QBSqT3RxukdnOmlxo-4">
          <mxGeometry width="50" height="50" relative="1" as="geometry">
            <mxPoint x="390" y="310" as="sourcePoint" />
            <mxPoint x="440" y="260" as="targetPoint" />
            <Array as="points">
              <mxPoint x="-130" y="70" />
            </Array>
          </mxGeometry>
        </mxCell>
        <mxCell id="Q71QBSqT3RxukdnOmlxo-7" value="" style="endArrow=classic;html=1;rounded=0;exitX=1;exitY=0.5;exitDx=0;exitDy=0;entryX=0.5;entryY=0;entryDx=0;entryDy=0;" edge="1" parent="1" source="Q71QBSqT3RxukdnOmlxo-1" target="Q71QBSqT3RxukdnOmlxo-2">
          <mxGeometry width="50" height="50" relative="1" as="geometry">
            <mxPoint x="390" y="310" as="sourcePoint" />
            <mxPoint x="440" y="260" as="targetPoint" />
            <Array as="points">
              <mxPoint x="750" y="70" />
            </Array>
          </mxGeometry>
        </mxCell>
        <mxCell id="Q71QBSqT3RxukdnOmlxo-8" value="Персональные данные клиентов и собственников" style="rounded=1;whiteSpace=wrap;html=1;" vertex="1" parent="1">
          <mxGeometry x="-280" y="280" width="120" height="60" as="geometry" />
        </mxCell>
        <mxCell id="Q71QBSqT3RxukdnOmlxo-9" value="Финансовые данные" style="rounded=1;whiteSpace=wrap;html=1;" vertex="1" parent="1">
          <mxGeometry x="-90" y="280" width="120" height="60" as="geometry" />
        </mxCell>
        <mxCell id="Q71QBSqT3RxukdnOmlxo-10" value="Данные об объектах недвижимости" style="rounded=1;whiteSpace=wrap;html=1;" vertex="1" parent="1">
          <mxGeometry x="690" y="280" width="120" height="60" as="geometry" />
        </mxCell>
        <mxCell id="Q71QBSqT3RxukdnOmlxo-11" value="Данные о работе внутренних систем" style="rounded=1;whiteSpace=wrap;html=1;" vertex="1" parent="1">
          <mxGeometry x="100" y="280" width="120" height="60" as="geometry" />
        </mxCell>
        <mxCell id="Q71QBSqT3RxukdnOmlxo-12" value="Данные о привязках УК к пользователям" style="rounded=1;whiteSpace=wrap;html=1;" vertex="1" parent="1">
          <mxGeometry x="270" y="280" width="120" height="60" as="geometry" />
        </mxCell>
        <mxCell id="Q71QBSqT3RxukdnOmlxo-13" value="Данные по работам УК" style="rounded=1;whiteSpace=wrap;html=1;" vertex="1" parent="1">
          <mxGeometry x="430" y="280" width="120" height="60" as="geometry" />
        </mxCell>
        <mxCell id="Q71QBSqT3RxukdnOmlxo-14" value="" style="endArrow=classic;html=1;rounded=0;exitX=0.5;exitY=1;exitDx=0;exitDy=0;entryX=0.5;entryY=0;entryDx=0;entryDy=0;" edge="1" parent="1" source="Q71QBSqT3RxukdnOmlxo-3" target="Q71QBSqT3RxukdnOmlxo-11">
          <mxGeometry width="50" height="50" relative="1" as="geometry">
            <mxPoint x="390" y="310" as="sourcePoint" />
            <mxPoint x="440" y="260" as="targetPoint" />
          </mxGeometry>
        </mxCell>
        <mxCell id="Q71QBSqT3RxukdnOmlxo-15" value="" style="endArrow=classic;html=1;rounded=0;entryX=0.5;entryY=0;entryDx=0;entryDy=0;" edge="1" parent="1" target="Q71QBSqT3RxukdnOmlxo-12">
          <mxGeometry width="50" height="50" relative="1" as="geometry">
            <mxPoint x="330" y="220" as="sourcePoint" />
            <mxPoint x="440" y="260" as="targetPoint" />
          </mxGeometry>
        </mxCell>
        <mxCell id="Q71QBSqT3RxukdnOmlxo-16" value="" style="endArrow=classic;html=1;rounded=0;exitX=0.5;exitY=1;exitDx=0;exitDy=0;entryX=0.5;entryY=0;entryDx=0;entryDy=0;" edge="1" parent="1" source="Q71QBSqT3RxukdnOmlxo-3" target="Q71QBSqT3RxukdnOmlxo-13">
          <mxGeometry width="50" height="50" relative="1" as="geometry">
            <mxPoint x="390" y="310" as="sourcePoint" />
            <mxPoint x="440" y="260" as="targetPoint" />
          </mxGeometry>
        </mxCell>
        <mxCell id="Q71QBSqT3RxukdnOmlxo-17" value="" style="endArrow=classic;html=1;rounded=0;exitX=0.5;exitY=1;exitDx=0;exitDy=0;entryX=0.5;entryY=0;entryDx=0;entryDy=0;" edge="1" parent="1" source="Q71QBSqT3RxukdnOmlxo-2" target="Q71QBSqT3RxukdnOmlxo-10">
          <mxGeometry width="50" height="50" relative="1" as="geometry">
            <mxPoint x="420" y="310" as="sourcePoint" />
            <mxPoint x="470" y="260" as="targetPoint" />
          </mxGeometry>
        </mxCell>
        <mxCell id="Q71QBSqT3RxukdnOmlxo-18" value="" style="endArrow=classic;html=1;rounded=0;exitX=0.5;exitY=1;exitDx=0;exitDy=0;entryX=0.5;entryY=0;entryDx=0;entryDy=0;" edge="1" parent="1" source="Q71QBSqT3RxukdnOmlxo-4" target="Q71QBSqT3RxukdnOmlxo-9">
          <mxGeometry width="50" height="50" relative="1" as="geometry">
            <mxPoint x="420" y="310" as="sourcePoint" />
            <mxPoint x="470" y="260" as="targetPoint" />
          </mxGeometry>
        </mxCell>
        <mxCell id="Q71QBSqT3RxukdnOmlxo-19" value="" style="endArrow=classic;html=1;rounded=0;exitX=0.5;exitY=1;exitDx=0;exitDy=0;entryX=0.5;entryY=0;entryDx=0;entryDy=0;" edge="1" parent="1" source="Q71QBSqT3RxukdnOmlxo-4" target="Q71QBSqT3RxukdnOmlxo-8">
          <mxGeometry width="50" height="50" relative="1" as="geometry">
            <mxPoint x="420" y="310" as="sourcePoint" />
            <mxPoint x="470" y="260" as="targetPoint" />
          </mxGeometry>
        </mxCell>
        <mxCell id="Q71QBSqT3RxukdnOmlxo-21" value="Утечка данных. Критический" style="rounded=1;whiteSpace=wrap;html=1;" vertex="1" parent="1">
          <mxGeometry x="100" y="390" width="120" height="60" as="geometry" />
        </mxCell>
        <mxCell id="Q71QBSqT3RxukdnOmlxo-23" value="Утечка данных. Критический" style="rounded=1;whiteSpace=wrap;html=1;" vertex="1" parent="1">
          <mxGeometry x="-280" y="390" width="120" height="60" as="geometry" />
        </mxCell>
        <mxCell id="Q71QBSqT3RxukdnOmlxo-24" value="Утечка данных. Критический" style="rounded=1;whiteSpace=wrap;html=1;" vertex="1" parent="1">
          <mxGeometry x="-90" y="390" width="120" height="60" as="geometry" />
        </mxCell>
        <mxCell id="Q71QBSqT3RxukdnOmlxo-25" value="Искажение данных. Значительный" style="rounded=1;whiteSpace=wrap;html=1;" vertex="1" parent="1">
          <mxGeometry x="690" y="390" width="120" height="60" as="geometry" />
        </mxCell>
        <mxCell id="Q71QBSqT3RxukdnOmlxo-26" value="Утечка данных. Значительный" style="rounded=1;whiteSpace=wrap;html=1;" vertex="1" parent="1">
          <mxGeometry x="270" y="390" width="120" height="60" as="geometry" />
        </mxCell>
        <mxCell id="Q71QBSqT3RxukdnOmlxo-27" value="Утечка данных. Незначительный" style="rounded=1;whiteSpace=wrap;html=1;" vertex="1" parent="1">
          <mxGeometry x="440" y="390" width="120" height="60" as="geometry" />
        </mxCell>
        <mxCell id="Q71QBSqT3RxukdnOmlxo-28" value="" style="endArrow=classic;html=1;rounded=0;exitX=0.5;exitY=1;exitDx=0;exitDy=0;entryX=0.5;entryY=0;entryDx=0;entryDy=0;" edge="1" parent="1" source="Q71QBSqT3RxukdnOmlxo-8" target="Q71QBSqT3RxukdnOmlxo-23">
          <mxGeometry width="50" height="50" relative="1" as="geometry">
            <mxPoint x="-140" y="540" as="sourcePoint" />
            <mxPoint x="-90" y="490" as="targetPoint" />
          </mxGeometry>
        </mxCell>
        <mxCell id="Q71QBSqT3RxukdnOmlxo-29" value="" style="endArrow=classic;html=1;rounded=0;exitX=0.5;exitY=1;exitDx=0;exitDy=0;entryX=0.5;entryY=0;entryDx=0;entryDy=0;" edge="1" parent="1">
          <mxGeometry width="50" height="50" relative="1" as="geometry">
            <mxPoint x="-30.5" y="340" as="sourcePoint" />
            <mxPoint x="-30.5" y="390" as="targetPoint" />
          </mxGeometry>
        </mxCell>
        <mxCell id="Q71QBSqT3RxukdnOmlxo-30" value="" style="endArrow=classic;html=1;rounded=0;exitX=0.5;exitY=1;exitDx=0;exitDy=0;entryX=0.5;entryY=0;entryDx=0;entryDy=0;" edge="1" parent="1">
          <mxGeometry width="50" height="50" relative="1" as="geometry">
            <mxPoint x="159.5" y="340" as="sourcePoint" />
            <mxPoint x="159.5" y="390" as="targetPoint" />
          </mxGeometry>
        </mxCell>
        <mxCell id="Q71QBSqT3RxukdnOmlxo-31" value="" style="endArrow=classic;html=1;rounded=0;exitX=0.5;exitY=1;exitDx=0;exitDy=0;entryX=0.5;entryY=0;entryDx=0;entryDy=0;" edge="1" parent="1">
          <mxGeometry width="50" height="50" relative="1" as="geometry">
            <mxPoint x="329.5" y="340" as="sourcePoint" />
            <mxPoint x="329.5" y="390" as="targetPoint" />
          </mxGeometry>
        </mxCell>
        <mxCell id="Q71QBSqT3RxukdnOmlxo-32" value="" style="endArrow=classic;html=1;rounded=0;exitX=0.5;exitY=1;exitDx=0;exitDy=0;entryX=0.5;entryY=0;entryDx=0;entryDy=0;" edge="1" parent="1">
          <mxGeometry width="50" height="50" relative="1" as="geometry">
            <mxPoint x="499.5" y="340" as="sourcePoint" />
            <mxPoint x="499.5" y="390" as="targetPoint" />
          </mxGeometry>
        </mxCell>
        <mxCell id="Q71QBSqT3RxukdnOmlxo-33" value="" style="endArrow=classic;html=1;rounded=0;exitX=0.5;exitY=1;exitDx=0;exitDy=0;entryX=0.5;entryY=0;entryDx=0;entryDy=0;" edge="1" parent="1">
          <mxGeometry width="50" height="50" relative="1" as="geometry">
            <mxPoint x="749.5" y="340" as="sourcePoint" />
            <mxPoint x="749.5" y="390" as="targetPoint" />
          </mxGeometry>
        </mxCell>
        <mxCell id="Q71QBSqT3RxukdnOmlxo-34" value="" style="endArrow=classic;html=1;rounded=0;exitX=0.5;exitY=1;exitDx=0;exitDy=0;entryX=0.5;entryY=0;entryDx=0;entryDy=0;" edge="1" parent="1">
          <mxGeometry width="50" height="50" relative="1" as="geometry">
            <mxPoint x="-220.5" y="450" as="sourcePoint" />
            <mxPoint x="-220.5" y="500" as="targetPoint" />
          </mxGeometry>
        </mxCell>
        <mxCell id="Q71QBSqT3RxukdnOmlxo-35" value="" style="endArrow=classic;html=1;rounded=0;exitX=0.5;exitY=1;exitDx=0;exitDy=0;entryX=0.5;entryY=0;entryDx=0;entryDy=0;" edge="1" parent="1">
          <mxGeometry width="50" height="50" relative="1" as="geometry">
            <mxPoint x="-30.5" y="450" as="sourcePoint" />
            <mxPoint x="-30.5" y="500" as="targetPoint" />
          </mxGeometry>
        </mxCell>
        <mxCell id="Q71QBSqT3RxukdnOmlxo-36" value="" style="endArrow=classic;html=1;rounded=0;exitX=0.5;exitY=1;exitDx=0;exitDy=0;entryX=0.5;entryY=0;entryDx=0;entryDy=0;" edge="1" parent="1">
          <mxGeometry width="50" height="50" relative="1" as="geometry">
            <mxPoint x="159.5" y="450" as="sourcePoint" />
            <mxPoint x="159.5" y="500" as="targetPoint" />
          </mxGeometry>
        </mxCell>
        <mxCell id="Q71QBSqT3RxukdnOmlxo-37" value="" style="endArrow=classic;html=1;rounded=0;exitX=0.5;exitY=1;exitDx=0;exitDy=0;entryX=0.5;entryY=0;entryDx=0;entryDy=0;" edge="1" parent="1">
          <mxGeometry width="50" height="50" relative="1" as="geometry">
            <mxPoint x="329.5" y="450" as="sourcePoint" />
            <mxPoint x="329.5" y="500" as="targetPoint" />
          </mxGeometry>
        </mxCell>
        <mxCell id="Q71QBSqT3RxukdnOmlxo-38" value="" style="endArrow=classic;html=1;rounded=0;exitX=0.5;exitY=1;exitDx=0;exitDy=0;entryX=0.5;entryY=0;entryDx=0;entryDy=0;" edge="1" parent="1">
          <mxGeometry width="50" height="50" relative="1" as="geometry">
            <mxPoint x="499.5" y="450" as="sourcePoint" />
            <mxPoint x="499.5" y="500" as="targetPoint" />
          </mxGeometry>
        </mxCell>
        <mxCell id="Q71QBSqT3RxukdnOmlxo-39" value="" style="endArrow=classic;html=1;rounded=0;exitX=0.5;exitY=1;exitDx=0;exitDy=0;entryX=0.5;entryY=0;entryDx=0;entryDy=0;" edge="1" parent="1">
          <mxGeometry width="50" height="50" relative="1" as="geometry">
            <mxPoint x="749.5" y="450" as="sourcePoint" />
            <mxPoint x="749.5" y="500" as="targetPoint" />
          </mxGeometry>
        </mxCell>
        <mxCell id="Q71QBSqT3RxukdnOmlxo-40" value="Приводит к репутационным и финансовым потерям" style="rounded=1;whiteSpace=wrap;html=1;" vertex="1" parent="1">
          <mxGeometry x="-280" y="500" width="120" height="60" as="geometry" />
        </mxCell>
        <mxCell id="Q71QBSqT3RxukdnOmlxo-41" value="Приводит к репутационным и финансовым потерям" style="rounded=1;whiteSpace=wrap;html=1;" vertex="1" parent="1">
          <mxGeometry x="-90" y="500" width="120" height="60" as="geometry" />
        </mxCell>
        <mxCell id="Q71QBSqT3RxukdnOmlxo-42" value="Приводит к возможным мошенническим действиям" style="rounded=1;whiteSpace=wrap;html=1;" vertex="1" parent="1">
          <mxGeometry x="440" y="500" width="120" height="60" as="geometry" />
        </mxCell>
        <mxCell id="Q71QBSqT3RxukdnOmlxo-43" value="Приводит к возможным мошенническим действиям, а также репутационным потерям" style="rounded=1;whiteSpace=wrap;html=1;" vertex="1" parent="1">
          <mxGeometry x="270" y="500" width="140" height="80" as="geometry" />
        </mxCell>
        <mxCell id="Q71QBSqT3RxukdnOmlxo-44" value="Приводит к возможным атакам на систему" style="rounded=1;whiteSpace=wrap;html=1;" vertex="1" parent="1">
          <mxGeometry x="100" y="500" width="120" height="60" as="geometry" />
        </mxCell>
        <mxCell id="Q71QBSqT3RxukdnOmlxo-45" value="Приводит к репутационным потерям" style="rounded=1;whiteSpace=wrap;html=1;" vertex="1" parent="1">
          <mxGeometry x="690" y="500" width="120" height="60" as="geometry" />
        </mxCell>
      </root>
    </mxGraphModel>
  </diagram>
</mxfile>
